<?xml version="1.0" encoding="UTF-8" standalone="no"?>
<!-- Created with Inkscape (http://www.inkscape.org/) -->

<svg
   width="201.67345mm"
   height="172.4857mm"
   viewBox="0 0 201.67345 172.4857"
   version="1.1"
   id="svg1"
   sodipodi:docname="fecho-convexo-interseccao.svg"
   inkscape:version="1.4.3 (0d15f75, 2025-12-25)"
   xmlns:inkscape="http://www.inkscape.org/namespaces/inkscape"
   xmlns:sodipodi="http://sodipodi.sourceforge.net/DTD/sodipodi-0.dtd"
   xmlns="http://www.w3.org/2000/svg"
   xmlns:svg="http://www.w3.org/2000/svg">
  <sodipodi:namedview
     id="namedview1"
     pagecolor="#ffffff"
     bordercolor="#000000"
     borderopacity="0.25"
     inkscape:showpageshadow="2"
     inkscape:pageopacity="0.0"
     inkscape:pagecheckerboard="0"
     inkscape:deskcolor="#d1d1d1"
     inkscape:document-units="mm"
     inkscape:zoom="1.2378925"
     inkscape:cx="381.29322"
     inkscape:cy="325.95723"
     inkscape:window-width="2560"
     inkscape:window-height="1009"
     inkscape:window-x="-8"
     inkscape:window-y="-8"
     inkscape:window-maximized="1"
     inkscape:current-layer="svg1" />
  <defs
     id="defs1" />
  <g
     id="layer1"
     transform="translate(11.18858,-82.69679)">
    <path
       style="fill:#cfcfcf;fill-opacity:1;stroke:#000000;stroke-width:0.4;stroke-opacity:1"
       d="m 102.62734,127.14164 9.24658,-9.24657 -5.91781,-12.9452 21.08219,2.9589 -3.69863,12.94521 21.08219,-11.83562 6.65754,14.42466 -9.24658,12.9452 -18.12328,-8.50685 1.84931,17.38356 -15.90411,4.0685 z"
       id="path1" />
    <path
       style="fill:#cfcfcf;fill-opacity:1;stroke:#000000;stroke-width:0.4;stroke-opacity:1"
       d="m 154.34611,105.0559 -9.61644,-11.835609 13.68493,-9.9863 21.82191,2.21918 9.61644,22.931499 -15.53423,26.63013 -21.82193,-2.9589 4.0685,-10.72603 10.35617,-3.32876 7.02739,-14.42466 -9.24657,-5.547949 z"
       id="path2" />
    <rect
       style="fill:none;stroke:#000000;stroke-width:0.4;stroke-opacity:1"
       id="rect4"
       width="49.067509"
       height="45.38747"
       x="102.15094"
       y="104.50963" />
    <rect
       style="fill:none;stroke:#000000;stroke-width:0.4;stroke-opacity:1"
       id="rect5"
       width="45.863014"
       height="52.243145"
       x="144.42186"
       y="82.89679" />
    <path
       style="fill:#cfcfcf;fill-opacity:1;stroke:#000000;stroke-width:0.4;stroke-opacity:1"
       d="m -10.512179,127.11252 9.2465795,-9.24657 -5.91781,-12.9452 21.0821905,2.9589 -3.69863,12.94521 21.08219,-11.83562 6.657542,14.42466 -9.246582,12.9452 -18.12328,-8.50685 1.84931,17.38356 -15.9041105,4.0685 z"
       id="path1-5" />
    <path
       style="fill:#cfcfcf;fill-opacity:1;stroke:#000000;stroke-width:0.4;stroke-opacity:1"
       d="m 54.470936,106.04711 -9.616442,-11.835616 13.684932,-9.9863 21.82191,2.21918 9.61644,22.931506 -15.53423,26.63013 -21.82193,-2.9589 4.0685,-10.72603 10.35617,-3.32876 7.02739,-14.42466 -9.24657,-5.547956 z"
       id="path2-62" />
    <rect
       style="fill:none;stroke:#000000;stroke-width:0.4;stroke-opacity:1"
       id="rect4-9"
       width="49.067509"
       height="45.38747"
       x="-10.98858"
       y="104.4805" />
    <rect
       style="fill:none;stroke:#000000;stroke-width:0.4;stroke-opacity:1"
       id="rect5-1"
       width="45.863014"
       height="52.243145"
       x="44.546684"
       y="83.887993" />
    <path
       style="fill:#cfcfcf;fill-opacity:1;stroke:#000000;stroke-width:0.4;stroke-opacity:1"
       d="m 61.380987,201.03856 9.24658,-9.24657 -5.91781,-12.9452 21.08219,2.9589 -3.69863,12.94521 21.082193,-11.83562 6.65754,14.42466 -9.24658,12.9452 -18.123283,-8.50685 1.84931,17.38356 -15.90411,4.0685 z"
       id="path1-3" />
    <path
       style="fill:#cfcfcf;fill-opacity:1;stroke:#000000;stroke-width:0.4;stroke-opacity:1"
       d="m 105.74949,214.86076 -9.616445,-11.83561 13.684935,-9.9863 21.82191,2.21918 9.61644,22.9315 -15.53424,26.63013 -21.82192,-2.9589 4.06849,-10.72603 10.35617,-3.32876 7.02739,-14.42466 -9.24657,-5.54795 z"
       id="path2-6" />
    <rect
       style="fill:none;stroke:#000000;stroke-width:0.4;stroke-opacity:1"
       id="rect4-7"
       width="49.067509"
       height="45.38747"
       x="60.904587"
       y="178.40654" />
    <rect
       style="fill:none;stroke:#000000;stroke-width:0.4;stroke-opacity:1"
       id="rect5-5"
       width="45.863014"
       height="52.243145"
       x="95.825249"
       y="192.70164" />
  </g>
  <path
     d="m 53.432198,74.587716 q 0,-0.602545 0.172861,-1.16064 0.1778,-0.563033 0.553155,-1.012472 h 0.409928 q -0.345722,0.464256 -0.523522,1.02235 -0.172861,0.558095 -0.172861,1.145823 0,0.572911 0.172861,1.126067 0.1778,0.548216 0.518583,1.012472 H 54.158214 Q 53.782859,76.286694 53.605059,75.738477 53.432198,75.185321 53.432198,74.587716 Z M 57.408,75.940971 56.983256,74.849477 H 55.58555 l -0.419806,1.091494 h -0.449439 l 1.377951,-3.541184 h 0.40005 l 1.373011,3.541184 z m -0.953205,-2.553406 q -0.01482,-0.03951 -0.04939,-0.143228 -0.03457,-0.103716 -0.06914,-0.212372 -0.02963,-0.113594 -0.04939,-0.172861 -0.03457,0.153106 -0.07902,0.301272 -0.04445,0.143228 -0.07408,0.227189 l -0.40005,1.0668 h 1.116189 z m 2.701572,1.200151 q 0,0.597605 -0.1778,1.150761 -0.172861,0.548217 -0.548217,0.982839 h -0.404989 q 0.340783,-0.464256 0.513644,-1.012472 0.177801,-0.553156 0.177801,-1.126067 0,-0.587728 -0.177801,-1.145823 -0.172861,-0.558094 -0.518583,-1.02235 h 0.409928 q 0.375356,0.449439 0.548217,1.012472 0.1778,0.558095 0.1778,1.16064 z"
     id="text354"
     style="font-size:4.93889px;stroke-width:0.264583"
     aria-label="(A)" />
  <path
     d="m 161.18204,74.578194 q 0,-0.602545 0.17286,-1.160639 0.1778,-0.563034 0.55315,-1.012473 h 0.40993 q -0.34572,0.464256 -0.52352,1.022351 -0.17286,0.558094 -0.17286,1.145822 0,0.572911 0.17286,1.126067 0.1778,0.548217 0.51858,1.012473 h -0.40499 q -0.37535,-0.434623 -0.55315,-0.98284 -0.17286,-0.553155 -0.17286,-1.150761 z m 2.77071,-2.173112 q 0.66181,0 0.99766,0.197556 0.34078,0.192617 0.34078,0.676628 0,0.31115 -0.17286,0.518583 -0.17286,0.202495 -0.49883,0.261762 v 0.02469 q 0.22225,0.03457 0.40005,0.128411 0.18274,0.09384 0.28646,0.2667 0.10371,0.172861 0.10371,0.449439 0,0.479073 -0.3309,0.740834 -0.32597,0.261761 -0.89394,0.261761 h -1.23966 v -3.526368 z m 0.0889,1.501423 q 0.45438,0 0.6223,-0.143228 0.16792,-0.148167 0.16792,-0.434622 0,-0.291395 -0.20743,-0.414867 -0.20249,-0.128411 -0.65193,-0.128411 h -0.58279 v 1.121128 z m -0.65193,0.370417 v 1.279172 h 0.7112 q 0.46919,0 0.65193,-0.182739 0.18274,-0.182739 0.18274,-0.479072 0,-0.276578 -0.19262,-0.4445 -0.18767,-0.172861 -0.67662,-0.172861 z m 3.57081,0.301272 q 0,0.597606 -0.1778,1.150761 -0.17286,0.548217 -0.54821,0.98284 h -0.40499 q 0.34078,-0.464256 0.51364,-1.012473 0.1778,-0.553156 0.1778,-1.126067 0,-0.587728 -0.1778,-1.145822 -0.17286,-0.558095 -0.51858,-1.022351 h 0.40993 q 0.37535,0.449439 0.54821,1.012473 0.1778,0.558094 0.1778,1.160639 z"
     id="text358"
     style="font-size:4.93889px;stroke-width:0.264583"
     aria-label="(B)" />
  <path
     d="m 109.77678,170.35211 q 0,-0.60254 0.17286,-1.16064 0.1778,-0.56303 0.55316,-1.01247 h 0.40992 q -0.34572,0.46426 -0.52352,1.02235 -0.17286,0.5581 -0.17286,1.14582 0,0.57291 0.17286,1.12607 0.1778,0.54822 0.51859,1.01247 h -0.40499 q -0.37536,-0.43462 -0.55316,-0.98284 -0.17286,-0.55315 -0.17286,-1.15076 z m 3.27448,-1.83233 q -0.56797,0 -0.89394,0.3803 -0.32597,0.38029 -0.32597,1.0421 0,0.65688 0.30128,1.04211 0.30621,0.38029 0.91369,0.38029 0.23213,0 0.43956,-0.0395 0.20744,-0.0395 0.40499,-0.0988 v 0.38523 q -0.19755,0.0741 -0.40993,0.10865 -0.20743,0.0346 -0.49882,0.0346 -0.53834,0 -0.89888,-0.22225 -0.36054,-0.22225 -0.54328,-0.63218 -0.1778,-0.40993 -0.1778,-0.96308 0,-0.5334 0.19262,-0.93839 0.19755,-0.40993 0.57785,-0.63712 0.38029,-0.23213 0.92357,-0.23213 0.55809,0 0.97296,0.20744 l -0.1778,0.37535 q -0.16298,-0.0741 -0.36548,-0.13335 -0.19755,-0.0593 -0.43462,-0.0593 z m 2.41512,1.83233 q 0,0.59761 -0.1778,1.15076 -0.17286,0.54822 -0.54822,0.98284 h -0.40499 q 0.34078,-0.46425 0.51365,-1.01247 0.1778,-0.55316 0.1778,-1.12607 0,-0.58772 -0.1778,-1.14582 -0.17287,-0.55809 -0.51859,-1.02235 h 0.40993 q 0.37536,0.44944 0.54822,1.01247 0.1778,0.5581 0.1778,1.16064 z"
     id="text362"
     style="font-size:4.93889px;stroke-width:0.264583"
     aria-label="(C)" />
</svg>
