<?xml version="1.0" encoding="UTF-8" standalone="no"?>
<svg
   viewBox="0 0 708.97754 312.03446"
   width="708.97754"
   height="312.03445"
   version="1.1"
   id="svg14"
   sodipodi:docname="soma-minkowski.svg"
   inkscape:version="1.4.3 (0d15f75, 2025-12-25)"
   inkscape:export-filename="../../../../soma-minkowski.svg"
   inkscape:export-xdpi="96"
   inkscape:export-ydpi="96"
   xml:space="preserve"
   xmlns:inkscape="http://www.inkscape.org/namespaces/inkscape"
   xmlns:sodipodi="http://sodipodi.sourceforge.net/DTD/sodipodi-0.dtd"
   xmlns="http://www.w3.org/2000/svg"
   xmlns:svg="http://www.w3.org/2000/svg"><sodipodi:namedview
     id="namedview22"
     pagecolor="#ffffff"
     bordercolor="#000000"
     borderopacity="0.25"
     inkscape:showpageshadow="2"
     inkscape:pageopacity="0.0"
     inkscape:pagecheckerboard="0"
     inkscape:deskcolor="#d1d1d1"
     showgrid="false"
     inkscape:zoom="1.0344044"
     inkscape:cx="186.5808"
     inkscape:cy="146.46109"
     inkscape:window-width="1460"
     inkscape:window-height="831"
     inkscape:window-x="929"
     inkscape:window-y="98"
     inkscape:window-maximized="0"
     inkscape:current-layer="svg14" /><defs
     id="defs18"><marker
       style="overflow:visible"
       id="marker9466"
       refX="0"
       refY="0"
       orient="auto"
       inkscape:stockid="Dot"
       markerWidth="5.4000001"
       markerHeight="5.4000001"
       viewBox="0 0 5.4 5.4"
       inkscape:isstock="true"
       inkscape:collect="always"
       preserveAspectRatio="xMidYMid"><path
         transform="scale(0.45)"
         style="fill:context-fill;fill-rule:evenodd;stroke:context-stroke;stroke-width:2"
         d="M 5,0 C 5,2.76 2.76,5 0,5 -2.76,5 -5,2.76 -5,0 c 0,-2.76 2.3,-5 5,-5 2.76,0 5,2.24 5,5 z"
         id="path9464"
         sodipodi:nodetypes="sssss" /></marker><marker
       style="overflow:visible"
       id="marker9466-5"
       refX="0"
       refY="0"
       orient="auto"
       inkscape:stockid="Dot"
       markerWidth="5.4000001"
       markerHeight="5.4000001"
       viewBox="0 0 5.4 5.4"
       inkscape:isstock="true"
       inkscape:collect="always"
       preserveAspectRatio="xMidYMid"><path
         transform="scale(0.45)"
         style="fill:context-fill;fill-rule:evenodd;stroke:context-stroke;stroke-width:2"
         d="M 5,0 C 5,2.76 2.76,5 0,5 -2.76,5 -5,2.76 -5,0 c 0,-2.76 2.3,-5 5,-5 2.76,0 5,2.24 5,5 z"
         id="path9464-3"
         sodipodi:nodetypes="sssss" /></marker></defs><!-- Linhas (recentralizadas) --><line
     x1="5.6760818e-10"
     y1="204.81805"
     x2="344.76001"
     y2="204.81805"
     stroke="#333333"
     stroke-width="1.11067"
     id="line2" /><line
     x1="129.94995"
     y1="27.933546"
     x2="129.94995"
     y2="290.52505"
     stroke="#333333"
     stroke-width="1.25207"
     id="line4" /><!-- Polígonos (transform removido e pontos recalculados) --><g
     id="g4337"
     transform="translate(10,0.81804759)"><polygon
       points="263.64,65 268.64,20 383.64,10 383.64,50 323.64,75 "
       fill="#ffabaa"
       fill-opacity="0.8"
       stroke="none"
       id="polygon8"
       transform="translate(-52.049988,-10)"
       style="fill:none;stroke:#000000;stroke-width:1.5;stroke-dasharray:none;stroke-dashoffset:0;stroke-opacity:1" /><path
       d="m 266.78542,37.300854 -1.14667,-2.946659 h -3.77332 l -1.13333,2.946659 h -1.21333 l 3.71999,-9.559976 h 1.08 l 3.70665,9.559976 z m -2.57333,-6.893316 q -0.04,-0.106667 -0.13333,-0.386666 -0.0933,-0.279999 -0.18667,-0.573332 -0.08,-0.306666 -0.13333,-0.466665 -0.0933,0.413332 -0.21334,0.813331 -0.11999,0.386666 -0.19999,0.613332 l -1.08,2.879993 h 3.01332 z m 8.10665,1.719995 h 2.65332 v 0.946665 h -2.65332 v 2.746659 h -0.96 v -2.746659 h -2.65333 v -0.946665 h 2.65333 V 29.36754 h 0.96 z m 7.35998,-4.346655 q 1.78666,0 2.69333,0.533332 0.92,0.519998 0.92,1.826662 0,0.839998 -0.46667,1.399996 -0.46666,0.546666 -1.34666,0.706665 v 0.06667 q 0.6,0.09333 1.08,0.346665 0.49333,0.253333 0.77333,0.719999 0.28,0.466665 0.28,1.21333 0,1.29333 -0.89333,1.999995 -0.88,0.706665 -2.41333,0.706665 h -3.34666 v -9.519976 z m 0.24,4.053323 q 1.22667,0 1.68,-0.386666 0.45333,-0.399999 0.45333,-1.17333 0,-0.786665 -0.56,-1.119997 -0.54666,-0.346666 -1.75999,-0.346666 h -1.57333 v 3.026659 z m -1.75999,0.999997 v 3.453325 h 1.91999 q 1.26667,0 1.76,-0.493332 0.49333,-0.493332 0.49333,-1.29333 0,-0.746665 -0.52,-1.199997 -0.50666,-0.466666 -1.82666,-0.466666 z"
       id="text900"
       style="font-size:13.3333px;stroke-width:2;stroke-dasharray:2, 1"
       aria-label="A+B" /></g><g
     id="g4327"
     transform="translate(-6,14.818048)"><polygon
       points="248.64,85 268.64,110 268.64,140 223.64,155 205.64,140 208.64,90 "
       fill="#9e9e9e"
       fill-opacity="0.8"
       stroke="none"
       id="polygon10"
       transform="translate(-52.049988,-10)"
       style="fill:none;stroke:#000000;stroke-dasharray:none;stroke-dashoffset:0;stroke-opacity:1" /><path
       d="m 185.17656,109.85141 -1.14666,-2.94666 h -3.77333 l -1.13333,2.94666 h -1.21333 l 3.71999,-9.55998 h 1.08 l 3.70666,9.55998 z m -2.57333,-6.89332 q -0.04,-0.10666 -0.13333,-0.38666 -0.0933,-0.28 -0.18667,-0.57333 -0.08,-0.30667 -0.13333,-0.46667 -0.0933,0.41333 -0.21333,0.81333 -0.12,0.38667 -0.2,0.61333 l -1.08,2.88 h 3.01333 z"
       id="text1422"
       style="font-size:13.3333px;stroke-width:2;stroke-dasharray:2, 1"
       aria-label="A" /></g><g
     id="g4322"
     transform="translate(26.955499,-0.74678741)"><polygon
       points="301.64,115 243.64,120 298.64,80 "
       fill="#757575"
       fill-opacity="0.8"
       stroke="none"
       id="polygon12"
       transform="translate(-52.049988,-10)"
       style="fill:none;stroke:#000000;stroke-dasharray:2, 1;stroke-dashoffset:0;stroke-opacity:1" /><path
       d="m 234.36704,90.033987 q 1.78666,0 2.69332,0.533332 0.92,0.519998 0.92,1.826662 0,0.839998 -0.46666,1.399996 -0.46667,0.546666 -1.34667,0.706665 v 0.06667 q 0.6,0.09333 1.08,0.346665 0.49333,0.253333 0.77333,0.719999 0.28,0.466665 0.28,1.21333 0,1.29333 -0.89333,1.999995 -0.88,0.706665 -2.41333,0.706665 h -3.34666 v -9.519976 z m 0.24,4.053323 q 1.22666,0 1.67999,-0.386666 0.45333,-0.399999 0.45333,-1.17333 0,-0.786665 -0.55999,-1.119997 -0.54667,-0.346666 -1.76,-0.346666 h -1.57333 v 3.026659 z m -1.76,0.999997 v 3.453325 h 1.92 q 1.26666,0 1.75999,-0.493332 0.49333,-0.493332 0.49333,-1.29333 0,-0.746665 -0.51999,-1.199997 -0.50667,-0.466666 -1.82667,-0.466666 z"
       id="text1478"
       style="font-size:13.3333px;stroke-width:2;stroke-dasharray:2, 1"
       aria-label="B" /></g><g
     id="g4332"
     transform="translate(-34.466563,-0.16464)"><polygon
       points="203.64,165 208.64,220 153.64,260 93.64,240 88.64,200 93.64,180 "
       fill="#8fce98"
       fill-opacity="0.8"
       stroke="none"
       id="polygon6"
       transform="translate(-52.049988,-10)"
       style="fill:none;fill-opacity:1;fill-rule:nonzero;stroke:#000000;stroke-width:1.4;stroke-dasharray:none;stroke-dashoffset:0;stroke-opacity:1" /><path
       style="font-size:13.3333px;stroke-width:2;stroke-dasharray:2, 1"
       d="m 89.139535,202.49483 -1.146664,-2.94666 h -3.773324 l -1.13333,2.94666 h -1.21333 l 3.71999,-9.55998 h 1.079998 l 3.706657,9.55998 z m -2.573327,-6.89332 q -0.04,-0.10667 -0.133333,-0.38666 -0.09333,-0.28 -0.186666,-0.57334 -0.08,-0.30666 -0.133333,-0.46666 -0.09333,0.41333 -0.213333,0.81333 -0.12,0.38667 -0.199999,0.61333 l -1.079998,2.87999 h 3.013326 z m 4.359988,3.83999 v -1.04 h 3.226659 v 1.04 z m 7.773321,-6.46665 q 1.786663,0 2.693323,0.53333 0.92,0.52 0.92,1.82667 0,0.83999 -0.46666,1.39999 -0.46667,0.54667 -1.34667,0.70667 v 0.0667 q 0.6,0.0933 1.08,0.34667 0.49333,0.25333 0.77333,0.72 0.28,0.46666 0.28,1.21333 0,1.29333 -0.89333,1.99999 -0.88,0.70667 -2.413328,0.70667 h -3.346658 v -9.51998 z m 0.239999,4.05332 q 1.226664,0 1.679994,-0.38666 0.45333,-0.4 0.45333,-1.17333 0,-0.78667 -0.55999,-1.12 -0.54667,-0.34666 -1.76,-0.34666 h -1.57333 v 3.02665 z m -1.759996,1 v 3.45333 h 1.919996 q 1.266664,0 1.759994,-0.49334 0.49333,-0.49333 0.49333,-1.29333 0,-0.74666 -0.52,-1.19999 -0.50666,-0.46667 -1.826657,-0.46667 z"
       id="text1845"
       aria-label="A-B" /></g><path
     d="m 141.85045,212.52622 q 0,1.48 -0.50667,2.58666 -0.49333,1.09333 -1.46666,1.70667 -0.97333,0.61333 -2.41333,0.61333 -1.47999,0 -2.46666,-0.61333 -0.97333,-0.61334 -1.45333,-1.72 -0.48,-1.10666 -0.48,-2.58666 0,-1.46666 0.48,-2.55999 0.48,-1.09333 1.45333,-1.70667 0.98667,-0.61333 2.48,-0.61333 1.42666,0 2.39999,0.61333 0.97333,0.6 1.46666,1.70667 0.50667,1.09333 0.50667,2.57332 z m -7.51998,0 q 0,1.8 0.76,2.84 0.75999,1.02666 2.37332,1.02666 1.62667,0 2.37333,-1.02666 0.74667,-1.04 0.74667,-2.84 0,-1.79999 -0.74667,-2.81332 -0.74666,-1.02667 -2.35999,-1.02667 -1.61333,0 -2.38666,1.02667 -0.76,1.01333 -0.76,2.81332 z"
     id="text305"
     style="font-size:13.3333px;stroke-width:1.4"
     aria-label="O" /><path
     style="fill:#0012bc;fill-opacity:1;stroke:#000000;stroke-width:1;stroke-linecap:butt;stroke-dasharray:none;stroke-dashoffset:0;stroke-opacity:1;marker-start:url(#marker9466);marker-end:url(#marker9466)"
     d="m 210.59001,114.81805 7.9555,-5.56484"
     id="path306" /><path
     style="fill:#0012bc;fill-opacity:1;stroke:#000000;stroke-width:1;stroke-linecap:butt;stroke-dasharray:none;stroke-dashoffset:0;stroke-opacity:1;marker-start:url(#marker9466-5);marker-end:url(#marker9466-5)"
     d="m 122.12345,209.83536 7.9555,-5.56484"
     id="path306-5" /><g
     id="g4464"
     transform="translate(364.21756,9.419818)"><line
       x1="0"
       y1="190.7635"
       x2="344.76001"
       y2="190.7635"
       stroke="#333333"
       stroke-width="1.11067"
       id="line2-3" /><line
       x1="129.94995"
       y1="13.879009"
       x2="129.94995"
       y2="276.47052"
       stroke="#333333"
       stroke-width="1.25207"
       id="line4-5" /><polygon
       points="93.64,180 203.64,165 208.64,220 153.64,260 93.64,240 88.64,200 "
       fill="#8fce98"
       fill-opacity="0.8"
       stroke="none"
       id="polygon6-6"
       transform="translate(-52.049988,-9.236489)"
       style="fill:none;stroke:#000000;stroke-width:1.4;stroke-dasharray:none;stroke-dashoffset:0;stroke-opacity:1" /><polygon
       points="263.64,65 268.64,20 383.64,10 383.64,50 323.64,75 "
       fill="#ffabaa"
       fill-opacity="0.8"
       stroke="none"
       id="polygon8-2"
       transform="translate(-52.049988,-9.236489)"
       style="fill:none;stroke:#000000;stroke-width:1.4;stroke-dasharray:none;stroke-dashoffset:0;stroke-opacity:1" /><polygon
       points="208.64,90 248.64,85 268.64,110 268.64,140 223.64,155 205.64,140 "
       fill="#9e9e9e"
       fill-opacity="0.8"
       stroke="none"
       id="polygon10-9"
       transform="translate(-52.049988,-9.236489)"
       style="fill:none;stroke:#000000;stroke-dasharray:none;stroke-dashoffset:0;stroke-opacity:1" /><polygon
       points="243.64,120 298.64,80 301.64,115 "
       fill="#757575"
       fill-opacity="0.8"
       stroke="none"
       id="polygon12-1"
       transform="translate(-52.049988,-9.236489)"
       style="fill:none;stroke:#000000;stroke-dasharray:2, 1;stroke-dashoffset:0;stroke-opacity:1" /><path
       d="m 266.78542,38.064365 -1.14667,-2.946659 h -3.77332 l -1.13333,2.946659 h -1.21333 l 3.71999,-9.559975 h 1.08 l 3.70665,9.559975 z m -2.57333,-6.893316 q -0.04,-0.106666 -0.13333,-0.386665 -0.0933,-0.28 -0.18667,-0.573332 -0.08,-0.306666 -0.13333,-0.466666 -0.0933,0.413333 -0.21334,0.813332 -0.11999,0.386665 -0.19999,0.613331 l -1.08,2.879993 h 3.01332 z m 8.10665,1.719996 h 2.65332 v 0.946664 h -2.65332 v 2.74666 h -0.96 v -2.74666 h -2.65333 v -0.946664 h 2.65333 v -2.759993 h 0.96 z m 7.35998,-4.346656 q 1.78666,0 2.69333,0.533332 0.92,0.519999 0.92,1.826662 0,0.839998 -0.46667,1.399997 -0.46666,0.546665 -1.34666,0.706665 v 0.06667 q 0.6,0.09333 1.08,0.346666 0.49333,0.253333 0.77333,0.719998 0.28,0.466666 0.28,1.213331 0,1.29333 -0.89333,1.999995 -0.88,0.706664 -2.41333,0.706664 h -3.34666 v -9.519976 z m 0.24,4.053324 q 1.22667,0 1.68,-0.386666 0.45333,-0.399999 0.45333,-1.173331 0,-0.786664 -0.56,-1.119997 -0.54666,-0.346665 -1.75999,-0.346665 h -1.57333 v 3.026659 z m -1.75999,0.999997 v 3.453325 h 1.91999 q 1.26667,0 1.76,-0.493332 0.49333,-0.493333 0.49333,-1.293331 0,-0.746664 -0.52,-1.199997 -0.50666,-0.466665 -1.82666,-0.466665 z"
       id="text900-2"
       style="font-size:13.3333px;stroke-width:2;stroke-dasharray:2, 1"
       aria-label="A+B" /><path
       d="m 185.17656,110.61492 -1.14666,-2.94666 h -3.77333 l -1.13333,2.94666 h -1.21333 l 3.71999,-9.55997 h 1.08 l 3.70666,9.55997 z m -2.57333,-6.89331 q -0.04,-0.10667 -0.13333,-0.38667 -0.0933,-0.28 -0.18667,-0.57333 -0.08,-0.30667 -0.13333,-0.46667 -0.0933,0.41333 -0.21333,0.81333 -0.12,0.38667 -0.2,0.61334 l -1.08,2.87999 h 3.01333 z"
       id="text1422-0"
       style="font-size:13.3333px;stroke-width:2;stroke-dasharray:2, 1"
       aria-label="A" /><path
       d="m 234.36704,90.797491 q 1.78666,0 2.69332,0.533332 0.92,0.519998 0.92,1.826662 0,0.839998 -0.46666,1.399996 -0.46667,0.546666 -1.34667,0.706665 v 0.06667 q 0.6,0.09333 1.08,0.346665 0.49333,0.253333 0.77333,0.719999 0.28,0.466665 0.28,1.21333 0,1.29333 -0.89333,1.999995 -0.88,0.706668 -2.41333,0.706668 h -3.34666 v -9.519979 z m 0.24,4.053323 q 1.22666,0 1.67999,-0.386666 0.45333,-0.399999 0.45333,-1.17333 0,-0.786665 -0.55999,-1.119997 -0.54667,-0.346666 -1.76,-0.346666 h -1.57333 v 3.026659 z m -1.76,0.999997 v 3.453325 h 1.92 q 1.26666,0 1.75999,-0.493332 0.49333,-0.493332 0.49333,-1.29333 0,-0.746665 -0.51999,-1.199997 -0.50667,-0.466666 -1.82667,-0.466666 z"
       id="text1478-3"
       style="font-size:13.3333px;stroke-width:2;stroke-dasharray:2, 1"
       aria-label="B" /><path
       style="font-size:13.3333px;stroke-width:2;stroke-dasharray:2, 1"
       d="m 89.139535,203.25833 -1.146664,-2.94666 h -3.773324 l -1.13333,2.94666 h -1.21333 l 3.71999,-9.55997 h 1.079998 l 3.706657,9.55997 z m -2.573327,-6.89331 q -0.04,-0.10667 -0.133333,-0.38667 -0.09333,-0.28 -0.186666,-0.57333 -0.08,-0.30667 -0.133333,-0.46667 -0.09333,0.41333 -0.213333,0.81333 -0.12,0.38667 -0.199999,0.61334 l -1.079998,2.87999 h 3.013326 z m 4.359988,3.83999 v -1.04 h 3.226659 v 1.04 z m 7.773321,-6.46665 q 1.786663,0 2.693323,0.53333 0.92,0.52 0.92,1.82666 0,0.84 -0.46666,1.4 -0.46667,0.54666 -1.34667,0.70666 v 0.0667 q 0.6,0.0933 1.08,0.34666 0.49333,0.25334 0.77333,0.72 0.28,0.46667 0.28,1.21333 0,1.29333 -0.89333,2 -0.88,0.70666 -2.413328,0.70666 h -3.346658 v -9.51997 z m 0.239999,4.05332 q 1.226664,0 1.679994,-0.38667 0.45333,-0.4 0.45333,-1.17333 0,-0.78666 -0.55999,-1.11999 -0.54667,-0.34667 -1.76,-0.34667 h -1.57333 v 3.02666 z m -1.759996,1 v 3.45332 h 1.919996 q 1.266664,0 1.759994,-0.49333 0.49333,-0.49333 0.49333,-1.29333 0,-0.74667 -0.52,-1.2 -0.50666,-0.46666 -1.826657,-0.46666 z"
       id="text1845-0"
       aria-label="A-B" /><path
       d="m 141.98474,198.35168 q 0,1.47999 -0.50666,2.58666 -0.49334,1.09333 -1.46667,1.70666 -0.97333,0.61333 -2.41332,0.61333 -1.48,0 -2.46666,-0.61333 -0.97334,-0.61333 -1.45333,-1.71999 -0.48,-1.10667 -0.48,-2.58666 0,-1.46667 0.48,-2.56 0.47999,-1.09333 1.45333,-1.70666 0.98666,-0.61333 2.47999,-0.61333 1.42666,0 2.39999,0.61333 0.97333,0.6 1.46667,1.70666 0.50666,1.09333 0.50666,2.57333 z m -7.51998,0 q 0,1.79999 0.76,2.83999 0.76,1.02667 2.37333,1.02667 1.62666,0 2.37332,-1.02667 0.74667,-1.04 0.74667,-2.83999 0,-1.8 -0.74667,-2.81333 -0.74666,-1.02666 -2.35999,-1.02666 -1.61333,0 -2.38666,1.02666 -0.76,1.01333 -0.76,2.81333 z"
       id="text958"
       style="font-size:13.3333px;stroke-width:1.4"
       aria-label="O" /></g><path
     d="m 143.27736,307.42645 q 0,-1.30134 0.37334,-2.50668 0.384,-1.216 1.19467,-2.18667 h 0.88533 q -0.74667,1.00267 -1.13067,2.208 -0.37333,1.20534 -0.37333,2.47468 0,1.23734 0.37333,2.43201 0.384,1.184 1.12001,2.18667 h -0.87467 q -0.81067,-0.93867 -1.19467,-2.12267 -0.37334,-1.19467 -0.37334,-2.48534 z m 5.84534,-2.89068 q 1.04534,0 1.54668,0.45867 0.50133,0.45867 0.50133,1.46134 v 3.89334 h -0.68267 l -0.18133,-0.81067 h -0.0427 q -0.37333,0.46934 -0.78933,0.69334 -0.40534,0.224 -1.13067,0.224 -0.77867,0 -1.29068,-0.40534 -0.512,-0.416 -0.512,-1.29067 0,-0.85333 0.67201,-1.312 0.672,-0.46934 2.06933,-0.512 l 0.97067,-0.032 v -0.34134 q 0,-0.71467 -0.30933,-0.992 -0.30933,-0.27733 -0.87467,-0.27733 -0.448,0 -0.85334,0.13866 -0.40533,0.128 -0.75733,0.29867 l -0.288,-0.704 q 0.37333,-0.20267 0.88533,-0.34134 0.51201,-0.14933 1.06667,-0.14933 z m 0.27734,3.05068 q -1.06667,0.0427 -1.48267,0.34133 -0.40534,0.29867 -0.40534,0.84267 0,0.48 0.288,0.704 0.29867,0.224 0.75734,0.224 0.72533,0 1.20534,-0.39467 0.48,-0.40533 0.48,-1.23733 v -0.512 z m 5.40802,-0.16 q 0,1.29067 -0.384,2.48534 -0.37333,1.184 -1.184,2.12267 h -0.87467 q 0.736,-1.00267 1.10934,-2.18667 0.384,-1.19467 0.384,-2.43201 0,-1.26934 -0.384,-2.47468 -0.37334,-1.20533 -1.12001,-2.208 h 0.88534 q 0.81067,0.97067 1.184,2.18667 0.384,1.20534 0.384,2.50668 z"
     id="text4496"
     style="font-size:10.6667px;-inkscape-font-specification:sans-serif;stroke-width:2"
     aria-label="(a)" /><path
     d="m 530.54422,303.02111 q 0,-1.30134 0.37334,-2.50667 0.384,-1.21601 1.19467,-2.18668 h 0.88533 q -0.74667,1.00267 -1.13067,2.20801 -0.37333,1.20534 -0.37333,2.47467 0,1.23734 0.37333,2.43201 0.384,1.18401 1.12001,2.18668 h -0.87467 q -0.81067,-0.93867 -1.19467,-2.12268 -0.37334,-1.19467 -0.37334,-2.48534 z m 4.61867,-3.21068 q 0,0.36267 -0.0213,0.68267 -0.0107,0.30934 -0.032,0.49067 h 0.0533 q 0.24534,-0.36267 0.67201,-0.608 0.42666,-0.24534 1.09867,-0.24534 1.06667,0 1.70667,0.74667 0.65067,0.73601 0.65067,2.20801 0,1.47201 -0.65067,2.21867 -0.65067,0.74667 -1.70667,0.74667 -0.67201,0 -1.09867,-0.24533 -0.42667,-0.24533 -0.67201,-0.58667 h -0.0747 l -0.192,0.72534 h -0.672 v -8.1067 h 0.93866 z m 1.61068,1.09867 q -0.90667,0 -1.25867,0.52267 -0.35201,0.52267 -0.35201,1.62134 v 0.0427 q 0,1.056 0.34134,1.62134 0.352,0.55466 1.29067,0.55466 0.768,0 1.14134,-0.56533 0.384,-0.56534 0.384,-1.63201 0,-2.16534 -1.54667,-2.16534 z m 5.87735,2.11201 q 0,1.29067 -0.38401,2.48534 -0.37333,1.18401 -1.184,2.12268 h -0.87467 q 0.736,-1.00267 1.10934,-2.18668 0.384,-1.19467 0.384,-2.43201 0,-1.26933 -0.384,-2.47467 -0.37334,-1.20534 -1.12001,-2.20801 h 0.88534 q 0.81067,0.97067 1.184,2.18668 0.38401,1.20533 0.38401,2.50667 z"
     id="text4512"
     style="font-size:10.6667px;-inkscape-font-specification:sans-serif;stroke-width:2"
     aria-label="(b)" /></svg>
