<?xml version="1.0" encoding="UTF-8" standalone="no"?>
<svg
   viewBox="-400 -350 978.54206 710.41101"
   width="978.54205"
   height="710.41101"
   version="1.1"
   id="svg1791"
   sodipodi:docname="support-function.svg"
   inkscape:version="1.4.3 (0d15f75, 2025-12-25)"
   xmlns:inkscape="http://www.inkscape.org/namespaces/inkscape"
   xmlns:sodipodi="http://sodipodi.sourceforge.net/DTD/sodipodi-0.dtd"
   xmlns="http://www.w3.org/2000/svg"
   xmlns:svg="http://www.w3.org/2000/svg">
  <sodipodi:namedview
     id="namedview1"
     pagecolor="#ffffff"
     bordercolor="#000000"
     borderopacity="0.25"
     inkscape:showpageshadow="2"
     inkscape:pageopacity="0.0"
     inkscape:pagecheckerboard="0"
     inkscape:deskcolor="#d1d1d1"
     inkscape:zoom="1.1359621"
     inkscape:cx="497.37574"
     inkscape:cy="284.78062"
     inkscape:window-width="2560"
     inkscape:window-height="1009"
     inkscape:window-x="-8"
     inkscape:window-y="-8"
     inkscape:window-maximized="1"
     inkscape:current-layer="svg1791" />
  <defs
     id="defs1738">
    <marker
       style="overflow:visible"
       id="TriangleStart"
       refX="0"
       refY="0"
       orient="auto-start-reverse"
       markerWidth="12"
       markerHeight="13.872832"
       viewBox="0 0 5.3244081 6.1553851"
       preserveAspectRatio="xMidYMid">
      <path
         transform="scale(0.5)"
         style="fill:context-stroke;fill-rule:evenodd;stroke:context-stroke;stroke-width:1pt"
         d="M 5.77,0 -2.88,5 V -5 Z"
         id="path135" />
    </marker>
    <style
       id="style1736">
      .label { font-family: sans-serif; font-size: 16px; fill: #333; }
      .title { font-family: sans-serif; font-size: 22px; font-weight: bold; fill: #2c3e50; text-anchor: middle;}
      .sub-label { font-family: sans-serif; font-size: 14px; fill: #7f8c8d; font-style: italic;}
      .vector-label { font-weight: bold; font-size: 16px;}
      .formula { font-family: 'Courier New', monospace; font-weight: bold; font-size: 18px;}
    </style>
    <g
       id="g1432">
      <g
         id="g7770">
        <path
           d="M 6.390625,-7.140625 C 6.25,-7 5.8125,-6.59375 5.8125,-6.421875 c 0,0.125 0.109375,0.234375 0.21875,0.234375 0.109375,0 0.15625,-0.078125 0.25,-0.203125 0.28125,-0.34375 0.609375,-0.578125 0.875,-0.734375 0.125,-0.078125 0.203125,-0.109375 0.203125,-0.234375 0,-0.109375 -0.09375,-0.171875 -0.15625,-0.234375 C 6.859375,-7.8125 6.78125,-8.140625 6.734375,-8.28125 6.703125,-8.375 6.671875,-8.515625 6.5,-8.515625 c -0.0625,0 -0.21875,0.046875 -0.21875,0.21875 0,0.109375 0.078125,0.390625 0.3125,0.71875 H 2.5625 c -0.203125,0 -0.40625,0 -0.40625,0.234375 0,0.203125 0.21875,0.203125 0.40625,0.203125 z m 0,0"
           id="path6077" />
      </g>
      <g
         id="g9682">
        <path
           d="M 0.515625,1.515625 C 0.4375,1.875 0.375,1.96875 -0.109375,1.96875 c -0.140625,0 -0.265625,0 -0.265625,0.234375 0,0.015625 0.015625,0.109375 0.140625,0.109375 0.15625,0 0.328125,-0.015625 0.484375,-0.015625 h 0.515625 c 0.25,0 0.859375,0.015625 1.109375,0.015625 0.078125,0 0.21875,0 0.21875,-0.203125 C 2.09375,1.96875 2.015625,1.96875 1.8125,1.96875 1.25,1.96875 1.21875,1.890625 1.21875,1.796875 1.21875,1.65625 1.75,-0.40625 1.828125,-0.6875 c 0.125,0.34375 0.453125,0.8125 1.078125,0.8125 1.34375,0 2.8125,-1.765625 2.8125,-3.515625 0,-1.109375 -0.625,-1.875 -1.515625,-1.875 -0.765625,0 -1.421875,0.734375 -1.546875,0.90625 -0.09375,-0.59375 -0.5625,-0.90625 -1.046875,-0.90625 -0.34375,0 -0.625,0.15625 -0.84375,0.609375 C 0.546875,-4.21875 0.375,-3.484375 0.375,-3.4375 c 0,0.046875 0.0625,0.109375 0.140625,0.109375 0.09375,0 0.109375,-0.015625 0.171875,-0.296875 0.1875,-0.703125 0.40625,-1.40625 0.890625,-1.40625 0.28125,0 0.375,0.1875 0.375,0.546875 0,0.28125 -0.046875,0.40625 -0.09375,0.625 z m 2.0625,-5.25 C 2.671875,-4.0625 3,-4.40625 3.1875,-4.578125 c 0.140625,-0.125 0.53125,-0.453125 0.984375,-0.453125 0.53125,0 0.765625,0.53125 0.765625,1.140625 0,0.578125 -0.328125,1.9375 -0.640625,2.546875 C 4,-0.6875 3.453125,-0.125 2.90625,-0.125 c -0.8125,0 -0.953125,-1.015625 -0.953125,-1.0625 0,-0.046875 0.03125,-0.140625 0.046875,-0.203125 z m 0,0"
           id="path9428" />
      </g>
      <g
         id="g1488">
        <path
           d="m 7.59375,-8.3125 c 0,-0.109375 -0.09375,-0.109375 -0.109375,-0.109375 -0.046875,0 -0.0625,0.015625 -0.203125,0.203125 C 7.203125,-8.140625 6.71875,-7.515625 6.703125,-7.5 6.3125,-8.28125 5.515625,-8.421875 5.015625,-8.421875 3.5,-8.421875 2.125,-7.03125 2.125,-5.671875 2.125,-4.78125 2.671875,-4.25 3.25,-4.046875 3.375,-4 4.09375,-3.8125 4.453125,-3.734375 5.0625,-3.5625 5.21875,-3.515625 5.46875,-3.25 5.515625,-3.1875 5.75,-2.921875 5.75,-2.359375 5.75,-1.25 4.71875,-0.09375 3.53125,-0.09375 c -0.984375,0 -2.078125,-0.421875 -2.078125,-1.765625 0,-0.21875 0.046875,-0.5 0.09375,-0.625 0,-0.03125 0,-0.09375 0,-0.125 0,-0.046875 -0.015625,-0.109375 -0.109375,-0.109375 -0.109375,0 -0.125,0.03125 -0.171875,0.234375 L 0.65625,-0.03125 c 0,0 -0.046875,0.15625 -0.046875,0.171875 C 0.609375,0.25 0.703125,0.25 0.734375,0.25 0.78125,0.25 0.78125,0.234375 0.9375,0.0625 L 1.484375,-0.65625 C 1.765625,-0.234375 2.390625,0.25 3.5,0.25 c 1.546875,0 2.953125,-1.5 2.953125,-2.984375 0,-0.5 -0.125,-0.953125 -0.578125,-1.390625 -0.25,-0.25 -0.453125,-0.3125 -1.5625,-0.59375 -0.796875,-0.21875 -0.90625,-0.25 -1.125,-0.4375 -0.203125,-0.203125 -0.359375,-0.5 -0.359375,-0.90625 0,-1 1.015625,-2.03125 2.15625,-2.03125 1.171875,0 1.71875,0.71875 1.71875,1.859375 0,0.3125 -0.0625,0.625 -0.0625,0.671875 0,0.109375 0.09375,0.109375 0.140625,0.109375 0.109375,0 0.109375,-0.03125 0.15625,-0.21875 z m 0,0"
           id="path9976" />
      </g>
      <g
         id="g3486">
        <path
           d="m 6.015625,-8 c 0.015625,-0.046875 0.03125,-0.109375 0.03125,-0.171875 0,-0.125 -0.125,-0.125 -0.140625,-0.125 -0.015625,0 -0.59375,0.046875 -0.65625,0.0625 -0.203125,0.015625 -0.390625,0.03125 -0.59375,0.046875 -0.3125,0.03125 -0.390625,0.03125 -0.390625,0.25 0,0.125 0.09375,0.125 0.265625,0.125 0.578125,0 0.59375,0.109375 0.59375,0.21875 0,0.078125 -0.015625,0.171875 -0.03125,0.203125 l -0.734375,2.90625 c -0.125,-0.3125 -0.453125,-0.78125 -1.078125,-0.78125 -1.34375,0 -2.796875,1.734375 -2.796875,3.515625 0,1.171875 0.6875,1.875 1.5,1.875 0.65625,0 1.21875,-0.515625 1.546875,-0.90625 0.125,0.703125 0.6875,0.90625 1.046875,0.90625 0.359375,0 0.640625,-0.21875 0.859375,-0.65625 0.1875,-0.40625 0.359375,-1.125 0.359375,-1.171875 0,-0.0625 -0.046875,-0.109375 -0.125,-0.109375 C 5.5625,-1.8125 5.5625,-1.75 5.515625,-1.578125 5.328125,-0.875 5.109375,-0.125 4.609375,-0.125 4.265625,-0.125 4.25,-0.4375 4.25,-0.671875 c 0,-0.046875 0,-0.296875 0.078125,-0.625 z M 3.59375,-1.421875 C 3.53125,-1.21875 3.53125,-1.1875 3.375,-0.96875 3.109375,-0.640625 2.578125,-0.125 2.015625,-0.125 1.53125,-0.125 1.25,-0.5625 1.25,-1.265625 c 0,-0.65625 0.375,-2 0.609375,-2.5 0.40625,-0.84375 0.96875,-1.265625 1.421875,-1.265625 0.796875,0 0.953125,0.984375 0.953125,1.078125 0,0.015625 -0.03125,0.15625 -0.046875,0.1875 z m 0,0"
           id="path1015" />
      </g>
      <g
         id="g4831">
        <path
           d="m 8.0625,-3.875 c 0.171875,0 0.390625,0 0.390625,-0.21875 C 8.453125,-4.3125 8.25,-4.3125 8.0625,-4.3125 H 1.03125 c -0.171875,0 -0.390625,0 -0.390625,0.21875 0,0.21875 0.203125,0.21875 0.390625,0.21875 z m 0,2.21875 c 0.171875,0 0.390625,0 0.390625,-0.203125 C 8.453125,-2.09375 8.25,-2.09375 8.0625,-2.09375 H 1.03125 c -0.171875,0 -0.390625,0 -0.390625,0.21875 0,0.21875 0.203125,0.21875 0.390625,0.21875 z m 0,0"
           id="path9483" />
      </g>
      <g
         id="g9837">
        <path
           d="m 3.890625,2.90625 c 0,-0.03125 0,-0.0625 -0.203125,-0.265625 C 2.484375,1.4375 1.8125,-0.53125 1.8125,-2.96875 c 0,-2.328125 0.5625,-4.328125 1.953125,-5.734375 0.125,-0.109375 0.125,-0.125 0.125,-0.171875 0,-0.0625 -0.0625,-0.09375 -0.109375,-0.09375 -0.15625,0 -1.140625,0.859375 -1.71875,2.03125 -0.609375,1.21875 -0.890625,2.484375 -0.890625,3.96875 0,1.0625 0.171875,2.484375 0.78125,3.75 C 2.671875,2.21875 3.640625,3 3.78125,3 3.828125,3 3.890625,2.96875 3.890625,2.90625 Z m 0,0"
           id="path851" />
      </g>
      <g
         id="g4932">
        <path
           d="M 3.375,-2.96875 C 3.375,-3.890625 3.25,-5.359375 2.578125,-6.75 1.875,-8.1875 0.890625,-8.96875 0.765625,-8.96875 c -0.046875,0 -0.109375,0.03125 -0.109375,0.09375 0,0.046875 0,0.0625 0.203125,0.265625 1.203125,1.203125 1.859375,3.1875 1.859375,5.625 0,2.3125 -0.5625,4.3125 -1.9375,5.71875 C 0.65625,2.84375 0.65625,2.875 0.65625,2.90625 0.65625,2.96875 0.71875,3 0.765625,3 0.921875,3 1.90625,2.140625 2.484375,0.96875 3.09375,-0.25 3.375,-1.546875 3.375,-2.96875 Z m 0,0"
           id="path1765" />
      </g>
      <g
         id="g1675">
        <path
           d="M 1.46875,-0.953125 C 1.109375,-0.359375 0.78125,-0.28125 0.5,-0.265625 0.421875,-0.25 0.3125,-0.25 0.3125,-0.109375 0.3125,-0.09375 0.328125,0 0.4375,0 0.5,0 0.546875,-0.03125 1.109375,-0.03125 1.65625,-0.03125 1.828125,0 1.875,0 c 0.03125,0 0.15625,0 0.15625,-0.15625 0,-0.09375 -0.109375,-0.109375 -0.140625,-0.109375 -0.171875,0 -0.34375,-0.0625 -0.34375,-0.25 0,-0.109375 0.078125,-0.21875 0.21875,-0.453125 L 2.3125,-1.84375 H 4.5 L 4.65625,-0.5 c 0,0.125 -0.140625,0.234375 -0.515625,0.234375 -0.109375,0 -0.21875,0 -0.21875,0.15625 0,0 0,0.109375 0.140625,0.109375 0.078125,0 0.375,-0.015625 0.453125,-0.03125 h 0.5 C 5.734375,-0.03125 5.859375,0 5.921875,0 5.953125,0 6.09375,0 6.09375,-0.15625 c 0,-0.109375 -0.109375,-0.109375 -0.234375,-0.109375 -0.4375,0 -0.453125,-0.0625 -0.46875,-0.265625 L 4.75,-5.453125 C 4.734375,-5.640625 4.71875,-5.6875 4.59375,-5.6875 c -0.140625,0 -0.1875,0.078125 -0.25,0.15625 z M 2.484375,-2.109375 4.125,-4.71875 4.46875,-2.109375 Z m 0,0"
           id="path460" />
      </g>
      <g
         id="g4497">
        <path
           d="m 1.34375,-0.625 c -0.0625,0.296875 -0.078125,0.359375 -0.671875,0.359375 -0.15625,0 -0.25,0 -0.25,0.15625 C 0.421875,0 0.53125,0 0.65625,0 H 3.625 C 4.9375,0 5.90625,-0.9375 5.90625,-1.703125 5.90625,-2.28125 5.40625,-2.75 4.609375,-2.84375 5.53125,-3.015625 6.328125,-3.625 6.328125,-4.328125 6.328125,-4.921875 5.75,-5.4375 4.75,-5.4375 H 1.96875 c -0.140625,0 -0.25,0 -0.25,0.140625 0,0.125 0.09375,0.125 0.234375,0.125 0.265625,0 0.5,0 0.5,0.125 0,0.03125 -0.015625,0.03125 -0.03125,0.140625 z m 1.25,-2.3125 0.484375,-1.953125 c 0.0625,-0.265625 0.078125,-0.28125 0.40625,-0.28125 H 4.625 c 0.78125,0 0.96875,0.5 0.96875,0.828125 0,0.671875 -0.734375,1.40625 -1.75,1.40625 z M 2.046875,-0.265625 C 1.96875,-0.28125 1.9375,-0.28125 1.9375,-0.328125 c 0,-0.0625 0.015625,-0.140625 0.03125,-0.1875 l 0.5625,-2.203125 h 1.625 c 0.734375,0 0.984375,0.5 0.984375,0.953125 0,0.78125 -0.765625,1.5 -1.71875,1.5 z m 0,0"
           id="path3095" />
      </g>
      <g
         id="g8533">
        <path
           d="m 5.5625,-1.8125 c 0.140625,0 0.3125,0 0.3125,-0.171875 0,-0.1875 -0.171875,-0.1875 -0.3125,-0.1875 H 1 c -0.125,0 -0.296875,0 -0.296875,0.1875 C 0.703125,-1.8125 0.875,-1.8125 1,-1.8125 Z m 0,0"
           id="path9661" />
      </g>
    </g>
    <g
       id="g9196">
      <g
         id="g9943">
        <path
           d="M 6.390625,-7.140625 C 6.25,-7 5.8125,-6.59375 5.8125,-6.421875 c 0,0.125 0.109375,0.234375 0.21875,0.234375 0.109375,0 0.15625,-0.078125 0.25,-0.203125 0.28125,-0.34375 0.609375,-0.578125 0.875,-0.734375 0.125,-0.078125 0.203125,-0.109375 0.203125,-0.234375 0,-0.109375 -0.09375,-0.171875 -0.15625,-0.234375 C 6.859375,-7.8125 6.78125,-8.140625 6.734375,-8.28125 6.703125,-8.375 6.671875,-8.515625 6.5,-8.515625 c -0.0625,0 -0.21875,0.046875 -0.21875,0.21875 0,0.109375 0.078125,0.390625 0.3125,0.71875 H 2.5625 c -0.203125,0 -0.40625,0 -0.40625,0.234375 0,0.203125 0.21875,0.203125 0.40625,0.203125 z m 0,0"
           id="path9587" />
      </g>
      <g
         id="g4747">
        <path
           d="m 6.015625,-8 c 0.015625,-0.046875 0.03125,-0.109375 0.03125,-0.171875 0,-0.125 -0.125,-0.125 -0.140625,-0.125 -0.015625,0 -0.59375,0.046875 -0.65625,0.0625 -0.203125,0.015625 -0.390625,0.03125 -0.59375,0.046875 -0.3125,0.03125 -0.390625,0.03125 -0.390625,0.25 0,0.125 0.09375,0.125 0.265625,0.125 0.578125,0 0.59375,0.109375 0.59375,0.21875 0,0.078125 -0.015625,0.171875 -0.03125,0.203125 l -0.734375,2.90625 c -0.125,-0.3125 -0.453125,-0.78125 -1.078125,-0.78125 -1.34375,0 -2.796875,1.734375 -2.796875,3.515625 0,1.171875 0.6875,1.875 1.5,1.875 0.65625,0 1.21875,-0.515625 1.546875,-0.90625 0.125,0.703125 0.6875,0.90625 1.046875,0.90625 0.359375,0 0.640625,-0.21875 0.859375,-0.65625 0.1875,-0.40625 0.359375,-1.125 0.359375,-1.171875 0,-0.0625 -0.046875,-0.109375 -0.125,-0.109375 C 5.5625,-1.8125 5.5625,-1.75 5.515625,-1.578125 5.328125,-0.875 5.109375,-0.125 4.609375,-0.125 4.265625,-0.125 4.25,-0.4375 4.25,-0.671875 c 0,-0.046875 0,-0.296875 0.078125,-0.625 z M 3.59375,-1.421875 C 3.53125,-1.21875 3.53125,-1.1875 3.375,-0.96875 3.109375,-0.640625 2.578125,-0.125 2.015625,-0.125 1.53125,-0.125 1.25,-0.5625 1.25,-1.265625 c 0,-0.65625 0.375,-2 0.609375,-2.5 0.40625,-0.84375 0.96875,-1.265625 1.421875,-1.265625 0.796875,0 0.953125,0.984375 0.953125,1.078125 0,0.015625 -0.03125,0.15625 -0.046875,0.1875 z m 0,0"
           id="path172" />
      </g>
    </g>
    <clipPath
       id="clipPath5887">
      <path
         clip-rule="nonzero"
         d="m 5,1 h 5.066406 V 5 H 5 Z m 0,0"
         id="path7004" />
    </clipPath>
    <g
       id="g1453">
      <g
         id="g1112">
        <path
           d="m 13.265625,-14.796875 c -0.3125,0.28125 -1.21875,1.140625 -1.21875,1.484375 0,0.25 0.21875,0.46875 0.46875,0.46875 0.21875,0 0.328125,-0.140625 0.5,-0.390625 0.59375,-0.75 1.265625,-1.21875 1.828125,-1.53125 0.25,-0.15625 0.421875,-0.234375 0.421875,-0.5 0,-0.21875 -0.203125,-0.34375 -0.34375,-0.46875 -0.703125,-0.46875 -0.875,-1.140625 -0.9375,-1.4375 -0.07813,-0.203125 -0.15625,-0.5 -0.5,-0.5 -0.15625,0 -0.453125,0.109375 -0.453125,0.46875 0,0.234375 0.15625,0.828125 0.625,1.484375 H 5.328125 c -0.421875,0 -0.84375,0 -0.84375,0.484375 0,0.4375 0.453125,0.4375 0.84375,0.4375 z m 0,0"
           id="path3063" />
      </g>
      <g
         id="g231">
        <path
           d="m 12.46875,-16.578125 c 0.01563,-0.09375 0.07813,-0.25 0.07813,-0.375 0,-0.25 -0.25,-0.25 -0.3125,-0.25 -0.01563,0 -1.234375,0.109375 -1.359375,0.125 -0.421875,0.03125 -0.78125,0.07813 -1.234375,0.109375 -0.625,0.04687 -0.796875,0.0625 -0.796875,0.515625 0,0.25 0.203125,0.25 0.546875,0.25 1.21875,0 1.234375,0.21875 1.234375,0.46875 0,0.140625 -0.04687,0.34375 -0.0625,0.421875 l -1.515625,6.015625 c -0.28125,-0.640625 -0.9375,-1.625 -2.234375,-1.625 -2.796875,0 -5.828125,3.609375 -5.828125,7.28125 0,2.453125 1.4375,3.890625 3.125,3.890625 1.375,0 2.53125,-1.0625 3.21875,-1.890625 C 7.578125,-0.171875 8.75,0.25 9.484375,0.25 c 0.75,0 1.34375,-0.453125 1.796875,-1.34375 0.390625,-0.84375 0.734375,-2.34375 0.734375,-2.453125 0,-0.125 -0.09375,-0.21875 -0.25,-0.21875 -0.21875,0 -0.25,0.125 -0.34375,0.5 C 11.046875,-1.8125 10.578125,-0.25 9.5625,-0.25 c -0.71875,0 -0.765625,-0.640625 -0.765625,-1.140625 0,-0.09375 0,-0.609375 0.171875,-1.3125 z m -5.015625,13.625 c -0.125,0.421875 -0.125,0.46875 -0.46875,0.953125 -0.546875,0.6875 -1.625,1.75 -2.796875,1.75 -1.015625,0 -1.578125,-0.921875 -1.578125,-2.375 0,-1.359375 0.765625,-4.140625 1.234375,-5.1875 0.84375,-1.734375 2,-2.625 2.96875,-2.625 1.640625,0 1.953125,2.03125 1.953125,2.234375 0,0.03125 -0.0625,0.34375 -0.09375,0.390625 z m 0,0"
           id="path2745" />
      </g>
    </g>
    <clipPath
       id="clipPath3417">
      <path
         clip-rule="nonzero"
         d="m 8,1 h 8.597656 V 7 H 8 Z m 0,0"
         id="path8292" />
    </clipPath>
    <g
       id="g888">
      <g
         id="g8929">
        <path
           d="m 13.265625,-14.796875 c -0.3125,0.28125 -1.21875,1.140625 -1.21875,1.484375 0,0.25 0.21875,0.46875 0.46875,0.46875 0.21875,0 0.328125,-0.140625 0.5,-0.390625 0.59375,-0.75 1.265625,-1.21875 1.828125,-1.53125 0.25,-0.15625 0.421875,-0.234375 0.421875,-0.5 0,-0.21875 -0.203125,-0.34375 -0.34375,-0.46875 -0.703125,-0.46875 -0.875,-1.140625 -0.9375,-1.4375 -0.07813,-0.203125 -0.15625,-0.5 -0.5,-0.5 -0.15625,0 -0.453125,0.109375 -0.453125,0.46875 0,0.234375 0.15625,0.828125 0.625,1.484375 H 5.328125 c -0.421875,0 -0.84375,0 -0.84375,0.484375 0,0.4375 0.453125,0.4375 0.84375,0.4375 z m 0,0"
           id="path1819" />
      </g>
      <g
         id="g9305">
        <path
           d="m 1.0625,3.140625 c -0.171875,0.75 -0.265625,0.953125 -1.28125,0.953125 -0.296875,0 -0.546875,0 -0.546875,0.46875 0,0.046875 0.015625,0.25 0.296875,0.25 0.3125,0 0.671875,-0.046875 0.984375,-0.046875 H 1.59375 c 0.515625,0 1.78125,0.046875 2.296875,0.046875 0.15625,0 0.453125,0 0.453125,-0.453125 0,-0.265625 -0.1875,-0.265625 -0.609375,-0.265625 -1.125,0 -1.203125,-0.171875 -1.203125,-0.375 0,-0.296875 1.109375,-4.5625 1.265625,-5.125 0.265625,0.6875 0.9375,1.65625 2.21875,1.65625 2.8125,0 5.828125,-3.640625 5.828125,-7.28125 0,-2.28125 -1.28125,-3.890625 -3.140625,-3.890625 -1.59375,0 -2.921875,1.53125 -3.203125,1.875 -0.203125,-1.234375 -1.15625,-1.875 -2.15625,-1.875 -0.71875,0 -1.28125,0.34375 -1.75,1.28125 -0.453125,0.890625 -0.796875,2.40625 -0.796875,2.5 0,0.109375 0.09375,0.234375 0.265625,0.234375 0.203125,0 0.21875,-0.03125 0.375,-0.609375 0.375,-1.453125 0.84375,-2.921875 1.828125,-2.921875 0.578125,0 0.78125,0.40625 0.78125,1.140625 0,0.59375 -0.078125,0.84375 -0.1875,1.296875 z m 4.296875,-10.875 c 0.171875,-0.6875 0.859375,-1.40625 1.25,-1.75 0.28125,-0.25 1.09375,-0.953125 2.046875,-0.953125 1.078125,0 1.578125,1.09375 1.578125,2.390625 0,1.1875 -0.6875,3.984375 -1.3125,5.265625 C 8.296875,-1.4375 7.15625,-0.25 6.015625,-0.25 4.34375,-0.25 4.0625,-2.375 4.0625,-2.484375 4.0625,-2.546875 4.109375,-2.75 4.140625,-2.875 Z m 0,0"
           id="path2222" />
      </g>
      <g
         id="g8594">
        <path
           d="m 15.734375,-17.21875 c 0,-0.234375 -0.171875,-0.234375 -0.21875,-0.234375 -0.109375,0 -0.125,0.03125 -0.421875,0.40625 -0.15625,0.171875 -1.171875,1.453125 -1.1875,1.484375 -0.828125,-1.609375 -2.453125,-1.890625 -3.5,-1.890625 -3.140625,0 -6,2.875 -6,5.6875 0,1.859375 1.125,2.9375 2.328125,3.359375 0.28125,0.109375 1.734375,0.5 2.484375,0.671875 1.265625,0.34375 1.578125,0.453125 2.109375,1 0.09375,0.125 0.59375,0.6875 0.59375,1.859375 0,2.296875 -2.140625,4.671875 -4.609375,4.671875 -2.03125,0 -4.296875,-0.859375 -4.296875,-3.640625 0,-0.46875 0.109375,-1.0625 0.1875,-1.3125 0,-0.078125 0.015625,-0.203125 0.015625,-0.25 0,-0.09375 -0.046875,-0.21875 -0.25,-0.21875 -0.21875,0 -0.25,0.046875 -0.34375,0.46875 l -1.265625,5.078125 c 0,0.03125 -0.09375,0.34375 -0.09375,0.375 0,0.21875 0.203125,0.21875 0.25,0.21875 0.09375,0 0.125,-0.015625 0.421875,-0.390625 l 1.140625,-1.484375 c 0.59375,0.890625 1.875,1.875 4.1875,1.875 3.1875,0 6.109375,-3.09375 6.109375,-6.1875 0,-1.046875 -0.234375,-1.953125 -1.1875,-2.875 C 11.671875,-9.0625 11.21875,-9.1875 8.953125,-9.78125 7.28125,-10.234375 7.0625,-10.3125 6.609375,-10.703125 6.1875,-11.125 5.875,-11.71875 5.875,-12.5625 c 0,-2.078125 2.109375,-4.21875 4.453125,-4.21875 2.4375,0 3.578125,1.484375 3.578125,3.84375 0,0.640625 -0.125,1.3125 -0.125,1.421875 0,0.21875 0.203125,0.21875 0.265625,0.21875 0.234375,0 0.25,-0.07813 0.34375,-0.46875 z m 0,0"
           id="path7398" />
      </g>
      <g
         id="g2757">
        <path
           d="m 12.46875,-16.578125 c 0.01563,-0.09375 0.07813,-0.25 0.07813,-0.375 0,-0.25 -0.25,-0.25 -0.3125,-0.25 -0.01563,0 -1.234375,0.109375 -1.359375,0.125 -0.421875,0.03125 -0.78125,0.07813 -1.234375,0.109375 -0.625,0.04687 -0.796875,0.0625 -0.796875,0.515625 0,0.25 0.203125,0.25 0.546875,0.25 1.21875,0 1.234375,0.21875 1.234375,0.46875 0,0.140625 -0.04687,0.34375 -0.0625,0.421875 l -1.515625,6.015625 c -0.28125,-0.640625 -0.9375,-1.625 -2.234375,-1.625 -2.796875,0 -5.828125,3.609375 -5.828125,7.28125 0,2.453125 1.4375,3.890625 3.125,3.890625 1.375,0 2.53125,-1.0625 3.21875,-1.890625 C 7.578125,-0.171875 8.75,0.25 9.484375,0.25 c 0.75,0 1.34375,-0.453125 1.796875,-1.34375 0.390625,-0.84375 0.734375,-2.34375 0.734375,-2.453125 0,-0.125 -0.09375,-0.21875 -0.25,-0.21875 -0.21875,0 -0.25,0.125 -0.34375,0.5 C 11.046875,-1.8125 10.578125,-0.25 9.5625,-0.25 c -0.71875,0 -0.765625,-0.640625 -0.765625,-1.140625 0,-0.09375 0,-0.609375 0.171875,-1.3125 z m -5.015625,13.625 c -0.125,0.421875 -0.125,0.46875 -0.46875,0.953125 -0.546875,0.6875 -1.625,1.75 -2.796875,1.75 -1.015625,0 -1.578125,-0.921875 -1.578125,-2.375 0,-1.359375 0.765625,-4.140625 1.234375,-5.1875 0.84375,-1.734375 2,-2.625 2.96875,-2.625 1.640625,0 1.953125,2.03125 1.953125,2.234375 0,0.03125 -0.0625,0.34375 -0.09375,0.390625 z m 0,0"
           id="path6936" />
      </g>
      <g
         id="g5880">
        <path
           d="m 15.9375,-7.953125 c 0.375,0 0.734375,0 0.734375,-0.421875 0,-0.453125 -0.421875,-0.453125 -0.84375,-0.453125 H 1.984375 c -0.421875,0 -0.84375,0 -0.84375,0.453125 0,0.421875 0.375,0.421875 0.75,0.421875 z m -0.109375,4.40625 c 0.421875,0 0.84375,0 0.84375,-0.4375 0,-0.421875 -0.359375,-0.421875 -0.734375,-0.421875 H 1.890625 c -0.375,0 -0.75,0 -0.75,0.421875 0,0.4375 0.421875,0.4375 0.84375,0.4375 z m 0,0"
           id="path5498" />
      </g>
      <g
         id="g3812">
        <path
           d="m 7.578125,6.046875 c 0,-0.03125 0,-0.078125 -0.0625,-0.15625 -1.140625,-1.15625 -4.1875,-4.328125 -4.1875,-12.0625 0,-7.734375 2.984375,-10.875 4.203125,-12.109375 0,-0.03125 0.046875,-0.07813 0.046875,-0.15625 0,-0.07813 -0.0625,-0.125 -0.171875,-0.125 -0.265625,0 -2.375,1.828125 -3.59375,4.5625 -1.234375,2.75 -1.578125,5.421875 -1.578125,7.8125 0,1.78125 0.171875,4.796875 1.65625,8 1.1875,2.578125 3.21875,4.375 3.515625,4.375 0.125,0 0.171875,-0.046875 0.171875,-0.140625 z m 0,0"
           id="path2525" />
      </g>
      <g
         id="g6476">
        <path
           d="m 6.515625,-6.171875 c 0,-1.78125 -0.171875,-4.8125 -1.65625,-8 C 3.671875,-16.75 1.640625,-18.5625 1.34375,-18.5625 c -0.078125,0 -0.171875,0.03125 -0.171875,0.15625 0,0.04687 0.015625,0.0625 0.046875,0.125 1.1875,1.234375 4.203125,4.375 4.203125,12.09375 0,7.71875 -3,10.875 -4.203125,12.109375 C 1.1875,5.96875 1.171875,6 1.171875,6.046875 c 0,0.125 0.09375,0.140625 0.171875,0.140625 0.265625,0 2.375,-1.828125 3.59375,-4.546875 1.234375,-2.75 1.578125,-5.4375 1.578125,-7.8125 z m 0,0"
           id="path2312" />
      </g>
      <g
         id="g5185">
        <path
           d="M 3.515625,-2.296875 C 2.78125,-1.078125 2.09375,-0.65625 1.09375,-0.59375 0.875,-0.578125 0.703125,-0.578125 0.703125,-0.203125 0.703125,-0.078125 0.8125,0 0.953125,0 1.328125,0 2.25,-0.046875 2.625,-0.046875 3.21875,-0.046875 3.890625,0 4.46875,0 c 0.109375,0 0.359375,0 0.359375,-0.390625 0,-0.1875 -0.15625,-0.203125 -0.28125,-0.203125 -0.484375,-0.046875 -0.875,-0.21875 -0.875,-0.703125 0,-0.296875 0.125,-0.515625 0.390625,-0.96875 L 5.640625,-4.875 h 5.265625 c 0.01563,0.1875 0.01563,0.34375 0.04687,0.53125 0.0625,0.546875 0.296875,2.6875 0.296875,3.078125 0,0.625 -1.046875,0.671875 -1.375,0.671875 -0.234375,0 -0.453125,0 -0.453125,0.359375 C 9.421875,0 9.609375,0 9.734375,0 10.078125,0 10.5,-0.046875 10.84375,-0.046875 h 1.171875 C 13.28125,-0.046875 14.1875,0 14.21875,0 c 0.140625,0 0.359375,0 0.359375,-0.390625 0,-0.203125 -0.1875,-0.203125 -0.484375,-0.203125 -1.140625,0 -1.15625,-0.1875 -1.21875,-0.8125 L 11.609375,-14.296875 C 11.5625,-14.703125 11.484375,-14.75 11.25,-14.75 c -0.203125,0 -0.328125,0.04687 -0.515625,0.359375 z m 2.46875,-3.171875 4.15625,-6.953125 0.703125,6.953125 z m 0,0"
           id="path7360" />
      </g>
      <g
         id="g1772">
        <path
           d="m 7.5625,-12.703125 c 0.1875,-0.765625 0.265625,-0.8125 1.078125,-0.8125 H 11.3125 c 2.34375,0 2.34375,1.984375 2.34375,2.171875 0,1.671875 -1.671875,3.796875 -4.40625,3.796875 H 6.28125 Z M 11.046875,-7.375 c 2.25,-0.40625 4.296875,-1.984375 4.296875,-3.875 0,-1.625 -1.421875,-2.859375 -3.75,-2.859375 H 4.953125 c -0.390625,0 -0.578125,0 -0.578125,0.390625 0,0.203125 0.1875,0.203125 0.5,0.203125 1.265625,0 1.265625,0.171875 1.265625,0.40625 0,0.03125 0,0.15625 -0.09375,0.46875 L 3.265625,-1.53125 c -0.1875,0.71875 -0.234375,0.9375 -1.671875,0.9375 -0.390625,0 -0.609375,0 -0.609375,0.359375 C 0.984375,0 1.109375,0 1.53125,0 h 7.078125 c 3.171875,0 5.609375,-2.390625 5.609375,-4.484375 0,-1.6875 -1.5,-2.71875 -3.171875,-2.890625 z M 8.125,-0.59375 H 5.328125 c -0.28125,0 -0.328125,0 -0.453125,-0.03125 -0.234375,-0.015625 -0.25,-0.0625 -0.25,-0.21875 0,-0.140625 0.046875,-0.265625 0.078125,-0.453125 L 6.15625,-7.125 h 3.875 c 2.4375,0 2.4375,2.265625 2.4375,2.4375 0,1.984375 -1.796875,4.09375 -4.34375,4.09375 z m 0,0"
           id="path2563" />
      </g>
      <g
         id="g1314">
        <path
           d="m 13.609375,-4.75 c 0.359375,0 0.71875,0 0.71875,-0.421875 0,-0.40625 -0.359375,-0.40625 -0.71875,-0.40625 H 2.4375 c -0.34375,0 -0.71875,0 -0.71875,0.40625 0,0.421875 0.375,0.421875 0.71875,0.421875 z m 0,0"
           id="path62" />
      </g>
    </g>
  </defs>
  <line
     x1="-400"
     y1="10.410988"
     x2="400"
     y2="10.410988"
     stroke="#eee"
     stroke-width="2"
     id="line1742"
     style="stroke:#000000;stroke-opacity:1" />
  <line
     x1="0"
     y1="-339.58902"
     x2="0"
     y2="360.41098"
     stroke="#eee"
     stroke-width="2"
     id="line1744"
     style="stroke:#000000;stroke-opacity:1" />
  <circle
     cx="0"
     cy="10.410988"
     r="5"
     fill="#333333"
     id="circle1746"
     style="fill:#000000;fill-opacity:1" />
  <g
     id="input-direction"
     transform="translate(182.61,141.46699)">
    <path
       style="fill:#333333;stroke:#000000;stroke-width:2;stroke-dasharray:none;stroke-opacity:1;marker-end:url(#TriangleStart)"
       d="M 3.9125417,-38.59542 198.8331,-233.51604"
       id="path420" />
    <rect
       style="fill:#000000;fill-opacity:1;stroke:none;stroke-width:4.52586;stroke-dasharray:none;stroke-opacity:1"
       id="rect4121"
       width="5.1317"
       height="5.1317"
       x="262.8801"
       y="-39.306614"
       transform="rotate(-44.520793)" />
  </g>
  <g
     id="minkowski-space"
     transform="translate(0,10.410994)">
    <path
       d="M 160,-280 260,-150 180,50 -50,100 -150,0 -80,-200 Z"
       fill="#bdc3c7"
       opacity="0.15"
       stroke="#7f8c8d"
       stroke-width="2"
       stroke-dasharray="8, 5"
       stroke-linejoin="round"
       id="path1759"
       style="opacity:1;fill:none;fill-opacity:0.2;stroke:#000000;stroke-opacity:1" />
    <g
       id="result-point-highlight">
      <line
         x1="80.287781"
         y1="-359.71225"
         x2="359.13989"
         y2="-81.550926"
         stroke="#2ecc71"
         stroke-width="1"
         stroke-dasharray="4"
         opacity="0.6"
         id="line1763"
         style="opacity:1;fill:none;fill-opacity:1;stroke:#000000;stroke-width:1.9739;stroke-dasharray:11.8434, 1.9739;stroke-dashoffset:0;stroke-opacity:1" />
      <circle
         cx="160"
         cy="-280"
         r="10"
         fill="#9b59b6"
         stroke="#ffffff"
         stroke-width="3"
         id="circle1765"
         style="fill:#000000;fill-opacity:1" />
      <path
         d="m 101.27369,-109.59379 q -3.679997,0 -5.791997,2.464 -2.112,2.464 -2.112,6.752 0,4.256001 1.952,6.752001 1.984,2.464 5.919997,2.464 1.504,0 2.848,-0.256 1.344,-0.256 2.624,-0.64 v 2.496 q -1.28,0.48 -2.656,0.704 -1.344,0.224 -3.232,0.224 -3.487997,0 -5.823997,-1.44 -2.336,-1.44 -3.52,-4.096 -1.152,-2.656 -1.152,-6.240001 0,-3.456 1.248,-6.08 1.28,-2.656 3.744,-4.128 2.464,-1.504 5.983997,-1.504 3.616,0 6.304,1.344 l -1.152,2.432 q -1.056,-0.48 -2.368,-0.864 -1.28,-0.384 -2.816,-0.384 z m 23.392,14.528001 q 0,3.04 -2.208,4.736 -2.208,1.696 -5.952,1.696 -1.92,0 -3.552,-0.288 -1.632,-0.288 -2.72,-0.8 v -2.752 q 1.152,0.512 2.848,0.928 1.728,0.416 3.552,0.416 2.56,0 3.84,-0.992 1.312,-0.992 1.312,-2.688 0,-1.12 -0.48,-1.888 -0.48,-0.768 -1.664,-1.408 -1.152,-0.672 -3.232,-1.408 -2.912,-1.056001 -4.416,-2.592001 -1.472,-1.536 -1.472,-4.192 0,-1.824 0.928,-3.104 0.928,-1.312 2.56,-2.016 1.664,-0.704 3.808,-0.704 1.888,0 3.456,0.352 1.568,0.352 2.848,0.928 l -0.896,2.464 q -1.184,-0.512 -2.592,-0.864 -1.376,-0.352 -2.88,-0.352 -2.144,0 -3.232,0.928 -1.088,0.896 -1.088,2.4 0,1.152 0.48,1.92 0.48,0.768 1.568,1.376 1.088,0.608 2.944,1.312 2.016,0.736 3.392,1.6 1.408,0.832001 2.112,2.016001 0.736,1.184 0.736,2.976 z m 24.544,-5.344001 q 0,3.552001 -1.216,6.208001 -1.184,2.624 -3.52,4.096 -2.336,1.472 -5.792,1.472 -3.552,0 -5.92,-1.472 -2.336,-1.472 -3.488,-4.128 -1.152,-2.656 -1.152,-6.208001 0,-3.52 1.152,-6.144 1.152,-2.624 3.488,-4.096 2.368,-1.472 5.952,-1.472 3.424,0 5.76,1.472 2.336,1.44 3.52,4.096 1.216,2.624 1.216,6.176 z m -18.048,0 q 0,4.320001 1.824,6.816001 1.824,2.464 5.696,2.464 3.904,0 5.696,-2.464 1.792,-2.496 1.792,-6.816001 0,-4.32 -1.792,-6.752 -1.792,-2.464 -5.664,-2.464 -3.872,0 -5.728,2.464 -1.824,2.432 -1.824,6.752 z"
         id="text312"
         style="font-size:32px;-inkscape-font-specification:sans-serif;stroke-width:2"
         aria-label="CSO" />
    </g>
    <path
       style="fill:none;fill-opacity:0.2;stroke:#000000;stroke-width:2;stroke-dasharray:none;stroke-opacity:1;marker-end:url(#TriangleStart)"
       d="m 0.26912,-0.87244 149.0542,-257.35574"
       id="path3206" />
  </g>
  <path
     style="fill:none;stroke:#000000;stroke-width:2;stroke-dasharray:none;stroke-opacity:1"
     d="m 344.79809,-84.874797 -12.72422,12.724212 13.93557,13.935576"
     id="path1441" />
  <g
     inkscape:label=""
     transform="translate(343.32157,-32.13086)"
     id="g2">
    <g
       clip-path="url(#clipPath3417)"
       id="g4"
       transform="matrix(1.33333,0,0,1.33333,-3.96983,-2.65083)">
      <g
         fill="#000000"
         fill-opacity="1"
         id="g3">
        <g
           id="use3"
           transform="translate(4.369,19.66)">
          <path
             d="m 13.265625,-14.796875 c -0.3125,0.28125 -1.21875,1.140625 -1.21875,1.484375 0,0.25 0.21875,0.46875 0.46875,0.46875 0.21875,0 0.328125,-0.140625 0.5,-0.390625 0.59375,-0.75 1.265625,-1.21875 1.828125,-1.53125 0.25,-0.15625 0.421875,-0.234375 0.421875,-0.5 0,-0.21875 -0.203125,-0.34375 -0.34375,-0.46875 -0.703125,-0.46875 -0.875,-1.140625 -0.9375,-1.4375 -0.07813,-0.203125 -0.15625,-0.5 -0.5,-0.5 -0.15625,0 -0.453125,0.109375 -0.453125,0.46875 0,0.234375 0.15625,0.828125 0.625,1.484375 H 5.328125 c -0.421875,0 -0.84375,0 -0.84375,0.484375 0,0.4375 0.453125,0.4375 0.84375,0.4375 z m 0,0"
             id="path5" />
        </g>
      </g>
    </g>
    <g
       fill="#000000"
       fill-opacity="1"
       id="g5"
       transform="matrix(1.33333,0,0,1.33333,-3.96983,-2.65083)">
      <g
         id="use4"
         transform="translate(1.993,26.201)">
        <path
           d="m 12.46875,-16.578125 c 0.01563,-0.09375 0.07813,-0.25 0.07813,-0.375 0,-0.25 -0.25,-0.25 -0.3125,-0.25 -0.01563,0 -1.234375,0.109375 -1.359375,0.125 -0.421875,0.03125 -0.78125,0.07813 -1.234375,0.109375 -0.625,0.04687 -0.796875,0.0625 -0.796875,0.515625 0,0.25 0.203125,0.25 0.546875,0.25 1.21875,0 1.234375,0.21875 1.234375,0.46875 0,0.140625 -0.04687,0.34375 -0.0625,0.421875 L 9.04688,-9.296875 c -0.28125,-0.640625 -0.9375,-1.625 -2.234375,-1.625 -2.796875,0 -5.828125,3.609375 -5.828125,7.28125 0,2.453125 1.4375,3.890625 3.125,3.890625 1.375,0 2.53125,-1.0625 3.21875,-1.890625 C 7.578125,-0.171875 8.75,0.25 9.484375,0.25 c 0.75,0 1.34375,-0.453125 1.796875,-1.34375 0.390625,-0.84375 0.734375,-2.34375 0.734375,-2.453125 0,-0.125 -0.09375,-0.21875 -0.25,-0.21875 -0.21875,0 -0.25,0.125 -0.34375,0.5 C 11.046875,-1.8125 10.578125,-0.25 9.5625,-0.25 c -0.71875,0 -0.765625,-0.640625 -0.765625,-1.140625 0,-0.09375 0,-0.609375 0.171875,-1.3125 z m -5.015625,13.625 c -0.125,0.421875 -0.125,0.46875 -0.46875,0.953125 -0.546875,0.6875 -1.625,1.75 -2.796875,1.75 -1.015625,0 -1.578125,-0.921875 -1.578125,-2.375 0,-1.359375 0.765625,-4.140625 1.234375,-5.1875 0.84375,-1.734375 2,-2.625 2.96875,-2.625 1.640625,0 1.953125,2.03125 1.953125,2.234375 0,0.03125 -0.0625,0.34375 -0.09375,0.390625 z m 0,0"
           id="path6" />
      </g>
    </g>
  </g>
  <g
     inkscape:label=""
     transform="translate(175.18216,-312.07)"
     id="g6">
    <g
       fill="#000000"
       fill-opacity="1"
       id="g11"
       transform="matrix(1.33333,0,0,1.33333,-1.64337,-2.65083)">
      <g
         id="use10"
         transform="translate(2.132,26.201)">
        <path
           d="m 13.265625,-14.796875 c -0.3125,0.28125 -1.21875,1.140625 -1.21875,1.484375 0,0.25 0.21875,0.46875 0.46875,0.46875 0.21875,0 0.328125,-0.140625 0.5,-0.390625 0.59375,-0.75 1.265625,-1.21875 1.828125,-1.53125 0.25,-0.15625 0.421875,-0.234375 0.421875,-0.5 0,-0.21875 -0.203125,-0.34375 -0.34375,-0.46875 -0.703125,-0.46875 -0.875,-1.140625 -0.9375,-1.4375 -0.07813,-0.203125 -0.15625,-0.5 -0.5,-0.5 -0.15625,0 -0.453125,0.109375 -0.453125,0.46875 0,0.234375 0.15625,0.828125 0.625,1.484375 H 5.328125 c -0.421875,0 -0.84375,0 -0.84375,0.484375 0,0.4375 0.453125,0.4375 0.84375,0.4375 z m 0,0"
           id="path21" />
      </g>
    </g>
    <g
       fill="#000000"
       fill-opacity="1"
       id="g12"
       transform="matrix(1.33333,0,0,1.33333,-1.64337,-2.65083)">
      <g
         id="use11"
         transform="translate(1.99815,26.201)">
        <path
           d="m 1.0625,3.140625 c -0.171875,0.75 -0.265625,0.953125 -1.28125,0.953125 -0.296875,0 -0.546875,0 -0.546875,0.46875 0,0.046875 0.015625,0.25 0.296875,0.25 0.3125,0 0.671875,-0.046875 0.984375,-0.046875 H 1.59375 c 0.515625,0 1.78125,0.046875 2.296875,0.046875 0.15625,0 0.453125,0 0.453125,-0.453125 0,-0.265625 -0.1875,-0.265625 -0.609375,-0.265625 -1.125,0 -1.203125,-0.171875 -1.203125,-0.375 0,-0.296875 1.109375,-4.5625 1.265625,-5.125 0.265625,0.6875 0.9375,1.65625 2.21875,1.65625 2.8125,0 5.828125,-3.640625 5.828125,-7.28125 0,-2.28125 -1.28125,-3.890625 -3.140625,-3.890625 -1.59375,0 -2.921875,1.53125 -3.203125,1.875 -0.203125,-1.234375 -1.15625,-1.875 -2.15625,-1.875 -0.71875,0 -1.28125,0.34375 -1.75,1.28125 -0.453125,0.890625 -0.796875,2.40625 -0.796875,2.5 0,0.109375 0.09375,0.234375 0.265625,0.234375 0.203125,0 0.21875,-0.03125 0.375,-0.609375 0.375,-1.453125 0.84375,-2.921875 1.828125,-2.921875 0.578125,0 0.78125,0.40625 0.78125,1.140625 0,0.59375 -0.078125,0.84375 -0.1875,1.296875 z m 4.296875,-10.875 c 0.171875,-0.6875 0.859375,-1.40625 1.25,-1.75 0.28125,-0.25 1.09375,-0.953125 2.046875,-0.953125 1.078125,0 1.578125,1.09375 1.578125,2.390625 0,1.1875 -0.6875,3.984375 -1.3125,5.265625 C 8.296875,-1.4375 7.15625,-0.25 6.015625,-0.25 4.34375,-0.25 4.0625,-2.375 4.0625,-2.484375 4.0625,-2.546875 4.109375,-2.75 4.140625,-2.875 Z m 0,0"
           id="path22" />
      </g>
    </g>
    <g
       fill="#000000"
       fill-opacity="1"
       id="g13"
       transform="matrix(1.33333,0,0,1.33333,-1.64337,-2.65083)">
      <g
         id="use12"
         transform="translate(21.069344,26.201)">
        <path
           d="m 15.9375,-7.953125 c 0.375,0 0.734375,0 0.734375,-0.421875 0,-0.453125 -0.421875,-0.453125 -0.84375,-0.453125 H 1.984375 c -0.421875,0 -0.84375,0 -0.84375,0.453125 0,0.421875 0.375,0.421875 0.75,0.421875 z m -0.109375,4.40625 c 0.421875,0 0.84375,0 0.84375,-0.4375 0,-0.421875 -0.359375,-0.421875 -0.734375,-0.421875 H 1.890625 c -0.375,0 -0.75,0 -0.75,0.421875 0,0.4375 0.421875,0.4375 0.84375,0.4375 z m 0,0"
           id="path23" />
      </g>
    </g>
    <g
       fill="#000000"
       fill-opacity="1"
       id="g14"
       transform="matrix(1.33333,0,0,1.33333,-1.64337,-2.65083)">
      <g
         id="use13"
         transform="translate(45.777126,26.201)">
        <path
           d="m 15.734375,-17.21875 c 0,-0.234375 -0.171875,-0.234375 -0.21875,-0.234375 -0.109375,0 -0.125,0.03125 -0.421875,0.40625 -0.15625,0.171875 -1.171875,1.453125 -1.1875,1.484375 -0.828125,-1.609375 -2.453125,-1.890625 -3.5,-1.890625 -3.140625,0 -6,2.875 -6,5.6875 0,1.859375 1.125,2.9375 2.328125,3.359375 0.28125,0.109375 1.734375,0.5 2.484375,0.671875 1.265625,0.34375 1.578125,0.453125 2.109375,1 0.09375,0.125 0.59375,0.6875 0.59375,1.859375 0,2.296875 -2.140625,4.671875 -4.609375,4.671875 -2.03125,0 -4.296875,-0.859375 -4.296875,-3.640625 0,-0.46875 0.109375,-1.0625 0.1875,-1.3125 0,-0.078125 0.015625,-0.203125 0.015625,-0.25 0,-0.09375 -0.046875,-0.21875 -0.25,-0.21875 -0.21875,0 -0.25,0.046875 -0.34375,0.46875 l -1.265625,5.078125 c 0,0.03125 -0.09375,0.34375 -0.09375,0.375 0,0.21875 0.203125,0.21875 0.25,0.21875 0.09375,0 0.125,-0.015625 0.421875,-0.390625 l 1.140625,-1.484375 c 0.59375,0.890625 1.875,1.875 4.1875,1.875 3.1875,0 6.109375,-3.09375 6.109375,-6.1875 0,-1.046875 -0.234375,-1.953125 -1.1875,-2.875 C 11.671875,-9.0625 11.21875,-9.1875 8.953125,-9.78125 7.28125,-10.234375 7.0625,-10.3125 6.609375,-10.703125 6.1875,-11.125 5.875,-11.71875 5.875,-12.5625 c 0,-2.078125 2.109375,-4.21875 4.453125,-4.21875 2.4375,0 3.578125,1.484375 3.578125,3.84375 0,0.640625 -0.125,1.3125 -0.125,1.421875 0,0.21875 0.203125,0.21875 0.265625,0.21875 0.234375,0 0.25,-0.07813 0.34375,-0.46875 z m 0,0"
           id="path24" />
      </g>
    </g>
    <g
       fill="#000000"
       fill-opacity="1"
       id="g15"
       transform="matrix(1.33333,0,0,1.33333,-1.64337,-2.65083)">
      <g
         id="use14"
         transform="translate(60.713001,31.783001)">
        <path
           d="M 3.515625,-2.296875 C 2.78125,-1.078125 2.09375,-0.65625 1.09375,-0.59375 0.875,-0.578125 0.703125,-0.578125 0.703125,-0.203125 0.703125,-0.078125 0.8125,0 0.953125,0 1.328125,0 2.25,-0.046875 2.625,-0.046875 3.21875,-0.046875 3.890625,0 4.46875,0 c 0.109375,0 0.359375,0 0.359375,-0.390625 0,-0.1875 -0.15625,-0.203125 -0.28125,-0.203125 -0.484375,-0.046875 -0.875,-0.21875 -0.875,-0.703125 0,-0.296875 0.125,-0.515625 0.390625,-0.96875 L 5.640625,-4.875 h 5.265625 c 0.01563,0.1875 0.01563,0.34375 0.04687,0.53125 0.0625,0.546875 0.296875,2.6875 0.296875,3.078125 0,0.625 -1.046875,0.671875 -1.375,0.671875 -0.234375,0 -0.453125,0 -0.453125,0.359375 C 9.421875,0 9.609375,0 9.734375,0 10.078125,0 10.5,-0.046875 10.84375,-0.046875 h 1.171875 C 13.28125,-0.046875 14.1875,0 14.21875,0 c 0.140625,0 0.359375,0 0.359375,-0.390625 0,-0.203125 -0.1875,-0.203125 -0.484375,-0.203125 -1.140625,0 -1.15625,-0.1875 -1.21875,-0.8125 L 11.609375,-14.296875 C 11.5625,-14.703125 11.484375,-14.75 11.25,-14.75 c -0.203125,0 -0.328125,0.04687 -0.515625,0.359375 z m 2.46875,-3.171875 4.15625,-6.953125 0.703125,6.953125 z m 0,0"
           id="path25" />
      </g>
    </g>
    <g
       fill="#000000"
       fill-opacity="1"
       id="g16"
       transform="matrix(1.33333,0,0,1.33333,-1.64337,-2.65083)">
      <g
         id="use15"
         transform="translate(75.879272,31.783001)">
        <path
           d="m 13.609375,-4.75 c 0.359375,0 0.71875,0 0.71875,-0.421875 0,-0.40625 -0.359375,-0.40625 -0.71875,-0.40625 H 2.4375 c -0.34375,0 -0.71875,0 -0.71875,0.40625 0,0.421875 0.375,0.421875 0.71875,0.421875 z m 0,0"
           id="path26" />
      </g>
    </g>
    <g
       fill="#000000"
       fill-opacity="1"
       id="g17"
       transform="matrix(1.33333,0,0,1.33333,-1.64337,-2.65083)">
      <g
         id="use16"
         transform="translate(91.950569,31.783001)">
        <path
           d="m 7.5625,-12.703125 c 0.1875,-0.765625 0.265625,-0.8125 1.078125,-0.8125 H 11.3125 c 2.34375,0 2.34375,1.984375 2.34375,2.171875 0,1.671875 -1.671875,3.796875 -4.40625,3.796875 H 6.28125 Z M 11.046875,-7.375 c 2.25,-0.40625 4.296875,-1.984375 4.296875,-3.875 0,-1.625 -1.421875,-2.859375 -3.75,-2.859375 H 4.953125 c -0.390625,0 -0.578125,0 -0.578125,0.390625 0,0.203125 0.1875,0.203125 0.5,0.203125 1.265625,0 1.265625,0.171875 1.265625,0.40625 0,0.03125 0,0.15625 -0.09375,0.46875 L 3.265625,-1.53125 c -0.1875,0.71875 -0.234375,0.9375 -1.671875,0.9375 -0.390625,0 -0.609375,0 -0.609375,0.359375 C 0.984375,0 1.109375,0 1.53125,0 h 7.078125 c 3.171875,0 5.609375,-2.390625 5.609375,-4.484375 0,-1.6875 -1.5,-2.71875 -3.171875,-2.890625 z M 8.125,-0.59375 H 5.328125 c -0.28125,0 -0.328125,0 -0.453125,-0.03125 -0.234375,-0.015625 -0.25,-0.0625 -0.25,-0.21875 0,-0.140625 0.046875,-0.265625 0.078125,-0.453125 L 6.15625,-7.125 h 3.875 c 2.4375,0 2.4375,2.265625 2.4375,2.4375 0,1.984375 -1.796875,4.09375 -4.34375,4.09375 z m 0,0"
           id="path27" />
      </g>
    </g>
    <g
       fill="#000000"
       fill-opacity="1"
       id="g18"
       transform="matrix(1.33333,0,0,1.33333,-1.64337,-2.65083)">
      <g
         id="use17"
         transform="translate(108.862,26.201)">
        <path
           d="m 7.578125,6.046875 c 0,-0.03125 0,-0.078125 -0.0625,-0.15625 -1.140625,-1.15625 -4.1875,-4.328125 -4.1875,-12.0625 0,-7.734375 2.984375,-10.875 4.203125,-12.109375 0,-0.03125 0.046875,-0.07813 0.046875,-0.15625 0,-0.07813 -0.0625,-0.125 -0.171875,-0.125 -0.265625,0 -2.375,1.828125 -3.59375,4.5625 -1.234375,2.75 -1.578125,5.421875 -1.578125,7.8125 0,1.78125 0.171875,4.796875 1.65625,8 1.1875,2.578125 3.21875,4.375 3.515625,4.375 0.125,0 0.171875,-0.046875 0.171875,-0.140625 z m 0,0"
           id="path28" />
      </g>
    </g>
    <g
       fill="#000000"
       fill-opacity="1"
       id="g19"
       transform="matrix(1.33333,0,0,1.33333,-1.64337,-2.65083)">
      <g
         id="use18"
         transform="translate(120.017,19.66)">
        <path
           d="m 13.265625,-14.796875 c -0.3125,0.28125 -1.21875,1.140625 -1.21875,1.484375 0,0.25 0.21875,0.46875 0.46875,0.46875 0.21875,0 0.328125,-0.140625 0.5,-0.390625 0.59375,-0.75 1.265625,-1.21875 1.828125,-1.53125 0.25,-0.15625 0.421875,-0.234375 0.421875,-0.5 0,-0.21875 -0.203125,-0.34375 -0.34375,-0.46875 -0.703125,-0.46875 -0.875,-1.140625 -0.9375,-1.4375 -0.07813,-0.203125 -0.15625,-0.5 -0.5,-0.5 -0.15625,0 -0.453125,0.109375 -0.453125,0.46875 0,0.234375 0.15625,0.828125 0.625,1.484375 H 5.328125 c -0.421875,0 -0.84375,0 -0.84375,0.484375 0,0.4375 0.453125,0.4375 0.84375,0.4375 z m 0,0"
           id="path29" />
      </g>
    </g>
    <g
       fill="#000000"
       fill-opacity="1"
       id="g20"
       transform="matrix(1.33333,0,0,1.33333,-1.64337,-2.65083)">
      <g
         id="use19"
         transform="translate(117.64,26.201)">
        <path
           d="m 12.46875,-16.578125 c 0.01563,-0.09375 0.07813,-0.25 0.07813,-0.375 0,-0.25 -0.25,-0.25 -0.3125,-0.25 -0.01563,0 -1.234375,0.109375 -1.359375,0.125 -0.421875,0.03125 -0.78125,0.07813 -1.234375,0.109375 -0.625,0.04687 -0.796875,0.0625 -0.796875,0.515625 0,0.25 0.203125,0.25 0.546875,0.25 1.21875,0 1.234375,0.21875 1.234375,0.46875 0,0.140625 -0.04687,0.34375 -0.0625,0.421875 L 9.04688,-9.296875 c -0.28125,-0.640625 -0.9375,-1.625 -2.234375,-1.625 -2.796875,0 -5.828125,3.609375 -5.828125,7.28125 0,2.453125 1.4375,3.890625 3.125,3.890625 1.375,0 2.53125,-1.0625 3.21875,-1.890625 C 7.578125,-0.171875 8.75,0.25 9.484375,0.25 c 0.75,0 1.34375,-0.453125 1.796875,-1.34375 0.390625,-0.84375 0.734375,-2.34375 0.734375,-2.453125 0,-0.125 -0.09375,-0.21875 -0.25,-0.21875 -0.21875,0 -0.25,0.125 -0.34375,0.5 C 11.046875,-1.8125 10.578125,-0.25 9.5625,-0.25 c -0.71875,0 -0.765625,-0.640625 -0.765625,-1.140625 0,-0.09375 0,-0.609375 0.171875,-1.3125 z m -5.015625,13.625 c -0.125,0.421875 -0.125,0.46875 -0.46875,0.953125 -0.546875,0.6875 -1.625,1.75 -2.796875,1.75 -1.015625,0 -1.578125,-0.921875 -1.578125,-2.375 0,-1.359375 0.765625,-4.140625 1.234375,-5.1875 0.84375,-1.734375 2,-2.625 2.96875,-2.625 1.640625,0 1.953125,2.03125 1.953125,2.234375 0,0.03125 -0.0625,0.34375 -0.09375,0.390625 z m 0,0"
           id="path30" />
      </g>
    </g>
    <g
       fill="#000000"
       fill-opacity="1"
       id="g21"
       transform="matrix(1.33333,0,0,1.33333,-1.64337,-2.65083)">
      <g
         id="use20"
         transform="translate(130.25168,26.201)">
        <path
           d="m 6.515625,-6.171875 c 0,-1.78125 -0.171875,-4.8125 -1.65625,-8 C 3.671875,-16.75 1.640625,-18.5625 1.34375,-18.5625 c -0.078125,0 -0.171875,0.03125 -0.171875,0.15625 0,0.04687 0.015625,0.0625 0.046875,0.125 1.1875,1.234375 4.203125,4.375 4.203125,12.09375 0,7.71875 -3,10.875 -4.203125,12.109375 C 1.1875,5.96875 1.171875,6 1.171875,6.046875 c 0,0.125 0.09375,0.140625 0.171875,0.140625 0.265625,0 2.375,-1.828125 3.59375,-4.546875 1.234375,-2.75 1.578125,-5.4375 1.578125,-7.8125 z m 0,0"
           id="path31" />
      </g>
    </g>
  </g>
</svg>
